<svg xmlns="http://www.w3.org/2000/svg" width="1536" height="1024" viewBox="0 0 1536 1024" role="img" aria-label="Seed lifestyle image for mini desk vacuum">
  <rect width="1536" height="1024" fill="#edf4ef"/>
  <rect x="160" y="660" width="1216" height="90" rx="10" fill="#c7a982"/>
  <rect x="260" y="450" width="460" height="170" rx="14" fill="#2f3a44"/>
  <g fill="#f7f7f4">
    <rect x="290" y="485" width="42" height="26" rx="4"/>
    <rect x="346" y="485" width="42" height="26" rx="4"/>
    <rect x="402" y="485" width="42" height="26" rx="4"/>
    <rect x="458" y="485" width="42" height="26" rx="4"/>
    <rect x="514" y="485" width="42" height="26" rx="4"/>
    <rect x="570" y="485" width="42" height="26" rx="4"/>
    <rect x="626" y="485" width="42" height="26" rx="4"/>
    <rect x="346" y="530" width="220" height="28" rx="4"/>
  </g>
  <ellipse cx="970" cy="520" rx="165" ry="120" fill="#ffffff" stroke="#2f3a44" stroke-width="14"/>
  <rect x="1015" y="472" width="90" height="50" rx="16" fill="#dfe7ed" stroke="#2f3a44" stroke-width="10"/>
  <path d="M880 400 C780 320 690 340 640 420" fill="none" stroke="#b0795f" stroke-width="30" stroke-linecap="round"/>
  <circle cx="642" cy="423" r="26" fill="#b0795f"/>
  <circle cx="780" cy="630" r="9" fill="#8d6b54"/>
  <circle cx="820" cy="620" r="7" fill="#8d6b54"/>
  <circle cx="860" cy="638" r="8" fill="#8d6b54"/>
</svg>
